# xmcd
#
# Track frame offsets:
#	183
#	16718
#	30000
#	46335
#	72900
#	91145
#	113023
#	125385
#	141773
#	154885
#	168973
#	185248
#
# Disc length: 2691 seconds
#
# Revision: 1
# Processed by: cddbd v1.5.2PL0 Copyright (c) Steve Scherf et al.
# Submitted via: audiograbber 1.83.01
#
DISCID=8f0a810c
DTITLE=Various Artist - Soul Years - 1970 [CD2]
DYEAR=1990
DGENRE=Soul
TTITLE0=Hot Chocolate - Love Is Life
TTITLE1=Donnie Elbert - Can't Get Over Losing You
TTITLE2=The Dells - Baby, Open Up Your Heart
TTITLE3=George Kerr - 3 Minutes 2 Key Girl
TTITLE4=Quincy Jones - Killer Joe
TTITLE5=Sly and The Family Stone - Thank You (Falletinme Be Mice Elf Agin)
TTITLE6=Fifth Dimension - Wedding Bell Blues
TTITLE7=Ike and Tina Turner - Come Together
TTITLE8=James Brown - Get Up I Feel Like Being A Sex Machine
TTITLE9=The Delfonics - Trying To Make A Fool Of Me
TTITLE10=Main Ingredient - I'm So Proud
TTITLE11=The Moments - Love On A Two Way Street
EXTD=YEAR: 1990
EXTT0=
EXTT1=
EXTT2=
EXTT3=
EXTT4=
EXTT5=
EXTT6=
EXTT7=
EXTT8=
EXTT9=
EXTT10=
EXTT11=
PLAYORDER=
